<svg xmlns="http://www.w3.org/2000/svg" viewBox="0 0 63.3 30"><path d="M55.6 7.1c-.7-.1-1.8-.3-6.6-.5v.5s.3 4.3.3 7.9c0 3.6-.3 7.9-.3 7.9v.5c4.8-.3 5.9-.4 6.6-.5h.1c2.8-.5 4.2-3.2 4.2-7.9s-1.6-7.4-4.3-7.9z"/><path d="M63.2 12.6c-.2-.8-.4-1.6-.7-2.3-.3-.6-.5-1.1-.9-1.6-.1-.4-.2-.7-.4-1.1v-.1c-.4-1.1-1-2.1-1.2-2.4-.3-.5-.6-1-1.5-1.2-.1 0-.3-.1-.6-.2-.9-.3-2.5-.7-3.7-.9-.6-.1-.9-.2-1.2-.3-.4-.1-.9-.3-1.8-.3-1.6-.2-2.7-.2-5.2-.1-1.2.1-1.8.2-2.3.3-.5.1-.9.2-1.8.2h-3.2c-2.4 0-5.7-.1-9.1-.1h-5.1l.4-1c.2-.5.1-1-.4-1.4-.4-.3-1-.3-1.4 0-.5.4-1.3 1.4-2 2.2 0 .1-.1.1-.1.2h-4c-.3 0-.9-.1-1.7-.1-1.1-.1-2.6-.3-3.8-.3-1.9 0-3.9.2-4.7.6-.1 0-.3.1-.4.1-.6.3-1.8.7-2.7 1.7-.9 1-2.2 3.4-2.9 4.8-.3.6-.9 1.6-.9 5.7 0 4 .6 5.1.9 5.7.7 1.3 2 3.7 2.9 4.8.9 1 2 1.4 2.8 1.6.2.1.3.1.4.1.7.3 2.8.6 4.7.6 1.3 0 2.7-.2 3.8-.3.7-.1 1.3-.1 1.7-.1h4c0 .1.1.1.1.2.6.8 1.5 1.8 2 2.2.2.2.5.2.7.2s.5-.1.7-.2c.4-.3.6-.9.4-1.4l-.4-1h5.1c3.4 0 6.7 0 9.1-.1H42c.9 0 1.3.1 1.8.2s1.1.3 2.3.3c1.2.1 2.1.1 2.9.1.8 0 1.5 0 2.3-.1.9-.1 1.4-.2 1.8-.3.3-.1.6-.2 1.2-.3.9-.1 2-.4 3-.7.3-.1.5-.2.8-.2.2-.1.5-.1.6-.2.9-.2 1.2-.7 1.5-1.2.2-.3.7-1.4 1.2-2.4v-.1c.1-.4.3-.8.4-1.1.3-.5.6-1.1.9-1.6.3-.7.6-1.5.7-2.3.2-.8.2-1.6.2-2.4-.2-.8-.2-1.6-.4-2.4zM6.9 7.2c1.1-.3 2.3-.6 3.5-.8 1.2-.2 2.3-.4 3.5-.6.8-.1 1.5-.2 2.3-.3-1.5 2.3-2.4 5.7-2.4 9.4s.9 7.1 2.4 9.4c-.8-.1-1.5-.2-2.3-.3-1.2-.2-2.4-.3-3.5-.6-1.2-.2-2.3-.5-3.5-.8-1.1-.3-2.3-.7-3.4-1.2 1 .6 2.2 1 3.3 1.5 1.1.4 2.3.8 3.4 1.1 1.2.3 2.3.6 3.5.9 1.2.3 2.3.5 3.5.7.9.2 1.8.4 2.3.5 0 .1.1.1.1.1h-2.7c-.4 0-1 .1-1.8.1-1.1.1-2.5.3-3.7.3-2 0-3.8-.3-4.2-.5 0 .1-.2 0-.4-.1-.7-.2-1.6-.5-2.3-1.3-.5-.6-1.5-2.3-2.7-4.5-.3-.5-.8-1.4-.8-5.2s.5-4.7.7-5.2C3 7.6 4 5.9 4.6 5.2c.6-.7 1.5-1 2.2-1.2.2-.1.4-.2.5-.2.5-.2 2.2-.5 4.2-.5 1.2 0 2.6.1 3.7.3.8.1 1.4.2 1.8.2h2.7l-.1.1c-.5.1-1.4.3-2.3.5-1.2.2-2.3.4-3.5.7-1.2.3-2.3.5-3.5.9-1.2.2-2.3.5-3.5 1-1.1.4-2.2.8-3.3 1.4 1.1-.5 2.3-.9 3.4-1.2zm17-6.1s0 .1 0 0l-.5 1.5h-.8c.5-.8 1-1.3 1.3-1.5zm0 27.8c-.3-.2-.8-.7-1.4-1.5h.8l.6 1.5c0-.1 0 0 0 0zm38-11.8l-.6 2.1c-.1.3-.3.7-.4 1l-.3.6v.1c-.1.1-.1.2-.2.4-.3.6-.5 1.2-.8 1.9 0 .1-.1.1-.1.2-.3 0-1 0-2.3.1H49v.2c0 .5.3.9.8.9h8.8l-.1.1c-.7.5-1.6.9-1.7.9-.9.2-2 .5-2.8.7-.7.1-1.1.2-1.4.3-.4.1-.7.2-1.6.3-1.5.1-2.6.1-5 0-1.1-.1-1.7-.2-2.2-.3-.6-.1-1-.2-2-.2h-3.2c-2.4 0-5.7.1-9.1.1h-5.9-2.2l-.2-.2c1.8-.2 5.1-.6 7.3-.8.1 0 .1 0 .1-.1v-.2c-1.2-2.1-2.4-5.4-2.4-10 0-4.7 1.2-8 2.4-10V5c0-.1-.1-.1-.1-.1-2.1-.3-5.5-.6-7.2-.8l.2-.2h8.1c3.4 0 6.7 0 9.1.1h3.2c1 0 1.5-.1 2-.2s1-.2 2.2-.3c2.4-.2 3.5-.1 5 0 .8.1 1.2.2 1.6.3.3.1.7.2 1.4.3.8-.1 1.9.1 2.8.4.2.1 1 .4 1.7.9 0 0 .1 0 .1.1h-7.4-1.6c-.4 0-.8.4-.7.8v.3h8.2c1.2 0 1.9 0 2.2.1l.1.1c.2.7.5 1.3.8 2 .1.1.1.2.2.4v.1l.3.6c.1.3.3.7.4 1 .3.7.5 1.4.6 2.1.2.7.3 1.4.3 2.2.1.5 0 1.2-.2 1.9z"/><path d="M48.2 7.1l-.1-.9c0-.4-.4-.8-.8-.8-1.1 0-2.6 0-4.5-.1-5.8 0-10-.2-12.8-.5-.2 0-.4.1-.5.3-1.1 2.1-2.3 5.3-2.3 9.9s1.1 7.8 2.3 9.9c.1.2.3.3.5.3 2.8-.3 7-.5 12.8-.6 1.9 0 3.4-.1 4.5-.1.4 0 .7-.3.8-.8l.1-.9s.2-4.3.2-7.9-.2-7.7-.2-7.8z"/></svg>