<svg xmlns="http://www.w3.org/2000/svg" viewBox="0 0 39.8 30"><path d="M16.8 6.7c-3 .1-5.4.4-5.4.4h-.2c-.2.1-2.1 1-3.9 5.6v.3c.1-.1.1-.1.2-.1 4-.1 8-.2 12.1-.2 4.2 0 8.5.1 12.7.2.1 0 .2 0 .2.1l-.1-.2c-1.8-4.6-3.7-5.5-3.9-5.6h-.2s-2.4-.3-5.4-.4c-.7 0-1.5-.1-2.3-.1H16.8zM3.4 2.3c3.9-.2 9-.6 10.5-.6 2.3 0 2.5.6 2.8 2.6v.1l.1 1.6c.7 0 1.5-.1 2.2-.1-.2-1.8-.5-3.4-.5-3.7-.1-.3-.6-1.5-1.1-1.8-.1 0-.2-.1-.5-.1-.5-.1-1.2-.2-2-.2-.7 0-1.4-.1-2.2 0l-4-.1H7.2c-.6.2-2.3.9-4 1.8-.2.1-.1.6.2.5zM23.1 4.4c.3-2.1.5-2.6 2.8-2.6 1.5 0 6.6.3 10.5.6.3 0 .4-.4.2-.5-1.7-.9-3.4-1.6-4-1.8h-1.5l-3.9.1H25c-.8 0-1.6.1-2 .2-.2 0-.4.1-.5.1-.5.2-1 1.4-1.1 1.8-.1.3-.3 1.9-.5 3.7.8 0 1.5 0 2.2.1V4.4z"/><path d="M39.6 3.4c-2.4-.1-11.9-.7-13.7-.7-1.4 0-1.6 0-1.8 1 0 .3.1.5.4.5l10.9.8H36.2l2.2-.4h.1c.4-.1.9-.4 1.3-.7.1-.2 0-.4-.2-.5zM3.7 5h.7l10.9-.9c.3 0 .4-.3.4-.5-.2-.9-.5-1-1.8-1-1.8 0-11.2.6-13.7.8-.2 0-.3.3-.1.4.4.3.9.7 1.3.7h.1l2.2.5zM30.7 28.5v.8c0 .4.3.7.7.7h4.2c.4 0 .7-.3.7-.7v-.8h-5.6zM36.4 27.7s0-.1-.1-.1v-7.3-.2c-.1-1.1-.3-2-.6-2.6-.4-1.7-1.3-2.4-2-3-.1-.1-.2-.1-.3-.2-.1-.1-.2-.2-.3-.4 1 0 2.3 0 2.8-.3.2-.1.5-.2.3-.7s-.2-.5-.2-.6-.1-.4-.8-.5c-.7-.1-1-.2-1.6-.3s-1 .1-.9.5v1.2c0 .2-.2.4-.4.4-4.2-.1-8.4-.2-12.7-.2-4 0-8.1.1-12 .2-.2 0-.4-.2-.4-.4V12c0-.5-.4-.6-.9-.5-.6.1-.9.2-1.6.3-.8.2-.8.5-.9.6 0 .1-.1.1-.2.6-.2.5.1.6.3.7.5.3 1.8.3 2.8.3-.1.1-.2.3-.4.4-.1.1-.2.1-.3.2-.3.3-.7.5-1 .9-.5.6-.8 1.2-1 2.1-.3.5-.5 1.3-.6 2.4-.1.1-.1.2-.1.3v7.4h33.1zm-7.9-9.8c.6-.4 1.2-.8 1.9-.9 1.2-.2 3.8-.8 4.1-.8l.7 1.7c0 .2-.1.7-1.1.8-.4.1-3.1.3-3.3.3-.2 0-.4 0-.9-.2-.5-.3-1.2-.7-1.4-.9 0 .1 0 .1 0 0zm-8.6 0c2.3 0 7.7 0 8.2 1-.7.2-5 .2-6.6.4 0 0-.2-.1-.7.4s-.9 1-.9 1-.4-.5-.9-1-.7-.4-.7-.4c-1.6-.2-5.9-.2-6.6-.4.5-1 5.9-1 8.2-1zm-14.2.8c-1-.1-1.1-.6-1.1-.8l.7-1.7c.3 0 2.9.6 4.1.8.7.1 1.3.5 1.9.9-.2.1-.9.5-1.3.7-.5.3-.7.2-.9.2-.2.1-2.9-.1-3.4-.1zM19.9 25s-11-.1-13.7-.1c0 0 .7-.5 1.3-.9.3-.2.8-.3 1.2-.3h22.2c.5 0 .9.1 1.2.3.6.4 1.3.9 1.3.9-2.5 0-13.5.1-13.5.1zM30.6 28.5h-1.8 1.8zM9.2 28.5h2.9-2.9zM3.4 28.4v.8c0 .4.3.7.7.7h4.2c.4 0 .7-.3.7-.7v-.8H3.4z"/></svg>